<svg width="294" height="67" viewBox="0 0 294 67" fill="none" xmlns="http://www.w3.org/2000/svg">
<path d="M48.0274 66.152L0.699375 45.8V36.296L48.0274 16.04V29.672L16.9234 41L48.0274 52.52V66.152ZM56.1146 65V0.871996H71.2826V26.312L94.4186 0.871996H112.947L87.6026 28.328L114.195 65H96.6266L77.8106 38.888L71.2826 46.088V65H56.1146ZM139.652 66.152C132.932 66.152 127.588 64.52 123.62 61.256C119.652 57.992 116.996 53.64 115.652 48.2L129.572 43.112C129.956 44.904 130.532 46.664 131.3 48.392C132.132 50.056 133.22 51.432 134.564 52.52C135.972 53.608 137.668 54.152 139.652 54.152C142.852 54.152 145.284 53.16 146.948 51.176C148.676 49.128 149.54 45.544 149.54 40.424V0.871996H164.708V40.424C164.708 48.424 162.564 54.728 158.276 59.336C154.052 63.88 147.844 66.152 139.652 66.152ZM201.081 65L226.137 0.871996H240.633L215.769 65H201.081ZM245.949 66.152V52.52L277.149 41L245.949 29.672V16.04L293.277 36.296V45.8L245.949 66.152Z" fill="black"/>
</svg>
